<?xml version="1.0" encoding="UTF-8" standalone="no"?>
<!-- Created with Inkscape (http://www.inkscape.org/) -->

<svg
   xmlns:dc="http://purl.org/dc/elements/1.1/"
   xmlns:cc="http://creativecommons.org/ns#"
   xmlns:rdf="http://www.w3.org/1999/02/22-rdf-syntax-ns#"
   xmlns:svg="http://www.w3.org/2000/svg"
   xmlns="http://www.w3.org/2000/svg"
   xmlns:sodipodi="http://sodipodi.sourceforge.net/DTD/sodipodi-0.dtd"
   xmlns:inkscape="http://www.inkscape.org/namespaces/inkscape"
   width="2523.1768"
   height="580.38306"
   id="svg3854"
   version="1.1"
   inkscape:version="0.48.4 r9939"
   sodipodi:docname="New document 1">
  <defs
     id="defs3856" />
  <sodipodi:namedview
     id="base"
     pagecolor="#ffffff"
     bordercolor="#666666"
     borderopacity="1.0"
     inkscape:pageopacity="0.0"
     inkscape:pageshadow="2"
     inkscape:zoom="0.38324702"
     inkscape:cx="1261.5884"
     inkscape:cy="290.19152"
     inkscape:document-units="px"
     inkscape:current-layer="layer1"
     showgrid="false"
     inkscape:window-width="1366"
     inkscape:window-height="716"
     inkscape:window-x="-8"
     inkscape:window-y="-8"
     inkscape:window-maximized="1"
     units="in"
     fit-margin-top="0"
     fit-margin-left="0"
     fit-margin-right="0"
     fit-margin-bottom="0" />
  <metadata
     id="metadata3859">
    <rdf:RDF>
      <cc:Work
         rdf:about="">
        <dc:format>image/svg+xml</dc:format>
        <dc:type
           rdf:resource="http://purl.org/dc/dcmitype/StillImage" />
        <dc:title></dc:title>
      </cc:Work>
    </rdf:RDF>
  </metadata>
  <g
     inkscape:label="Layer 1"
     inkscape:groupmode="layer"
     id="layer1"
     transform="translate(811.58852,-312.16748)">
    <path
       style="fill:#000000;stroke:none"
       d="m 425.57623,312.20722 c -7.53104,-0.5899 -16.13809,5.4551 -15.32515,13.5993 0.3727,8.0251 1.63981,16.0515 4.44241,23.597 1.46857,4.6114 1.79245,9.6057 3.79296,14.0208 2.39312,4.0956 7.9734,6.9788 7.1947,12.3823 -4.34467,3.2542 -10.95477,3.4401 -15.92505,6.1777 -7.62839,2.4062 -16.28757,1.1798 -23.26945,5.6046 -7.038,3.1029 -14.82863,3.6991 -22.15522,5.8799 -11.18214,2.6237 -22.04024,6.5009 -32.37471,11.5064 -4.71204,2.1373 -9.70514,3.5504 -14.05661,6.3458 -4.79976,2.0338 -10.35806,2.4178 -14.49915,5.8602 -4.46282,1.9864 -9.614,3.0794 -12.31365,7.6455 -3.29803,4.2817 -8.34761,6.292 -12.89634,8.8832 -5.82461,2.7339 -11.50484,5.9063 -16.05561,10.5377 -10.8533,9.2898 -20.28212,20.0632 -29.04094,31.3122 -6.54051,8.2916 -13.02446,16.6821 -20.833,23.8449 -4.89198,4.8212 -9.75538,9.8191 -13.18878,15.8222 -6.70147,7.5247 -12.60299,15.7668 -18.08606,24.1973 -5.45185,10.1339 -9.77377,20.8331 -15.23854,30.9586 -2.63274,4.9335 -2.60792,10.6681 -4.24871,15.8208 -2.63597,5.8291 -3.90377,12.1089 -4.63014,18.4297 -1.79604,12.9721 -2.91157,26.0561 -3.37885,39.137 0.46622,11.8199 3.07139,23.4498 3.27808,35.2922 0.92563,15.7041 1.71315,31.547 5.75807,46.8292 1.65771,8.233 3.91173,16.4852 8.46902,23.6282 3.33117,6.8092 4.59458,14.4914 8.13477,21.1732 3.16065,4.3852 4.3924,9.775 7.37675,14.2758 3.58117,6.0084 5.82468,12.8111 10.51026,18.1185 6.95972,8.571 15.49227,15.9156 21.11072,25.5267 5.36885,6.486 10.37354,13.3822 16.62952,19.055 3.24947,2.7245 6.99349,4.9046 11.06301,6.1375 5.36145,5.2659 12.64683,7.5211 19.38901,10.4133 5.29303,1.6737 9.57688,5.4578 14.98538,6.8335 6.27045,1.7347 12.51339,3.5482 18.69497,5.5654 7.50743,2.1266 15.14048,3.6654 22.77235,5.2504 7.483,1.9602 14.7364,5.1157 22.58646,5.3495 7.6961,0.089 15.40525,-0.3096 23.10308,0.1807 5.06128,-0.2585 9.86881,1.249 14.69153,2.5293 13.53203,1.1356 27.19342,-0.242 40.71433,1.3091 5.55788,1.667 11.49775,-0.6296 17.03707,1.3127 15.77028,0 44.88886,-2.7024 58.73704,-7.7578 5.74675,-0.9985 11.82243,-0.3462 17.30438,-2.652 5.62944,-0.9869 11.41458,-1.4244 16.70342,-3.7681 12.15869,-3.9593 24.20744,-8.3082 36.43414,-12.0259 5.61552,-0.8054 10.77,-3.5892 16.33139,-4.4417 5.87125,-0.6404 11.08277,-3.8731 16.05201,-6.8567 9.7348,-6.4879 18.73525,-14.5024 30.07817,-18.1307 6.99122,-2.5197 12.5809,-7.5089 18.7738,-11.4355 5.70039,-4.4478 10.51433,-9.9228 15.88336,-14.7591 7.35183,-7.1663 15.18501,-13.8091 22.86574,-20.6061 6.26884,-6.0408 10.6692,-13.6653 15.33573,-20.8837 4.61966,-4.7655 5.0853,-11.9264 9.16531,-17.0711 3.95014,-6.4497 7.75043,-13.1239 9.7068,-20.4775 2.66803,-5.3428 6.40567,-10.134 8.30938,-15.8546 4.4235,-9.6862 8.63483,-19.5244 11.08504,-29.9205 13.02826,-21.6648 11.7852,-45.2387 11.49969,-69.4515 -0.2393,-4.9666 -0.0892,-10.0333 -0.99086,-14.9164 -2.08787,-5.2369 -3.02109,-10.7608 -3.33228,-16.3519 -1.47262,-9.7448 -5.44759,-18.9046 -6.69349,-28.698 -1.49692,-10.0754 -5.54471,-19.5287 -10.69737,-28.2486 -3.7965,-6.205 -5.93969,-13.1735 -9.20653,-19.6344 -6.63105,-18.4444 -19.91712,-33.087 -27.99733,-43.1473 -9.03251,-16.4279 -23.60247,-16.7123 -34.34763,-25.6551 -3.86964,-3.4198 -8.89739,-5.013 -13.05077,-8.0531 -5.39795,-3.653 -11.26576,-6.4964 -17.39327,-8.6801 -4.9979,-2.43 -9.60328,-5.5942 -15.03833,-7.0168 -8.20683,-3.2237 -16.9797,-4.8415 -25.17097,-8.0556 -16.97073,-9.3663 -36.19353,-14.4388 -55.55111,-15.0191 -6.64195,-0.4094 -13.2695,-1.3977 -19.81877,-2.3383 -6.13403,0.4157 -12.24233,-1.5511 -17.73433,-4.1047 -10.96628,-5.627 -19.66482,-14.8531 -26.11186,-25.2372 -3.74006,-4.0746 -6.17414,-8.5699 -7.95513,-13.8088 -4.22141,-9.5205 -10.07626,-18.3846 -18.00725,-25.2232 -5.41625,-4.9066 -11.70206,-9.9742 -19.38663,-10.0622 z m 225.75,226.875 c 10.47825,-0.6016 21.25506,3.1026 28.94623,10.243 3.95062,4.9637 2.77441,11.7958 1.48611,17.5162 -1.14659,4.4943 -4.12794,8.2053 -7.67363,11.0535 -4.07062,4.8476 -6.52021,11.0743 -11.86356,14.8045 -4.51041,3.3776 -10.01497,5.4685 -13.65765,9.9419 -3.22133,3.6946 -7.61288,5.935 -10.75361,9.6535 -3.84826,2.7185 -6.87358,6.9175 -11.77735,7.5495 -6.02822,1.5376 -11.587,5.1369 -17.99367,4.8146 -3.41265,0.141 -6.74211,-0.9077 -9.98095,-1.6257 -5.35148,0.3665 -11.39781,-0.8567 -14.82988,-5.339 -3.54244,-3.1148 -8.6673,-6.5842 -7.77839,-11.9921 2.36027,-5.0651 2.64084,-10.7286 4.29835,-16.0086 4.16091,-10.9502 9.92635,-21.3555 17.30228,-30.4657 4.18282,-3.3825 9.04772,-6.2169 14.20162,-7.7817 7.03985,-1.6046 13.24668,-5.4634 20.02287,-7.8508 6.40469,-2.4788 13.13611,-4.4203 20.05123,-4.5131 z m -253.6875,28.5 c 8.60058,-0.056 17.50625,0.1774 25.62041,3.2821 5.17947,3.1059 11.15961,4.482 16.03123,8.1354 4.39481,2.8094 9.11502,5.1981 12.52424,9.2773 4.38137,4.8904 8.76928,10.5476 9.18887,17.3558 0.50777,4.644 0.59447,9.581 -1.00785,14.0021 -3.35623,5.4351 -6.40873,11.8453 -12.76044,14.309 -10.56795,5.1859 -21.97533,9.9802 -33.9529,9.7976 -5.47508,-0.047 -10.66953,-1.9919 -15.43525,-4.5256 -9.25329,-3.5297 -19.01274,-6.4106 -26.80642,-12.8047 -7.47466,-6.2676 -13.97181,-14.3074 -16.88579,-23.7357 -1.81666,-6.0608 0.11667,-12.3586 1.4903,-18.3001 1.23467,-3.6741 2.44162,-7.702 5.21646,-10.4817 5.17779,-1.6002 9.57947,-5.2416 15.06534,-5.6731 7.23534,-0.2936 14.46664,-0.6071 21.7118,-0.6384 z m 125.5625,85.1874 c 4.85151,4.1348 7.02053,10.4203 9.11152,16.2287 -0.51508,5.3955 -8.14533,5.3251 -12.2854,6.1282 -5.21832,-1.1085 -10.28506,3.9678 -15.02234,1.5765 -1.34647,-3.5802 5.12605,-5.4099 6.157,-8.9276 3.82106,-5.1431 7.11029,-10.8012 12.03922,-15.0058 z m 154.28125,32.5938 c 0.30721,5.1985 -5.43141,7.6657 -8.27235,11.2086 -13.02605,17.7258 -18.7921,23.8437 -33.43993,33.5465 -1.16313,4.1516 -5.18643,6.5437 -7.61493,9.9038 -8.39197,9.048 -18.05739,16.8937 -28.65647,23.204 -4.9564,3.6568 -9.85488,7.8601 -15.9924,9.3237 -5.85326,4.3093 -13.26754,5.1523 -19.65588,8.364 -3.91146,1.8311 -7.92725,3.2548 -12.18746,3.9943 -5.0351,1.0908 -10.97709,2.4878 -15.35395,-1.1678 -4.20107,-3.7378 -11.27234,-7.6709 -15.93577,-2.3784 -3.24024,2.9555 -4.43241,9.064 -9.89297,8.5979 -4.72937,0.06 -8.24286,-3.4184 -11.56985,-6.269 -3.75172,-2.941 -10.05642,-4.9175 -13.69285,-0.8145 -3.27598,4.1451 -6.70146,8.3168 -11.82314,10.1838 -4.36535,2.22 -9.02586,3.8492 -13.81104,4.8845 -5.69448,-1.897 -11.46646,-3.4672 -17.42102,-4.1511 -5.58046,-1.2447 -10.93775,-3.7794 -14.62116,-8.2663 -6.47947,-6.5676 -13.58248,-12.5042 -21.44194,-17.3521 -9.67179,-6.8959 -17.89213,-15.5195 -26.37825,-23.7545 -7.83901,-6.8033 -16.16172,-13.1193 -22.92534,-21.0628 -6.4362,-7.2188 -12.6827,-14.6292 -19.19466,-21.7649 -1.91072,-2.6616 -5.35815,-8.2764 -3.53812,-10.2935 3.86211,2.753 6.81329,6.5807 10.41998,9.6535 6.1914,5.832 11.51962,12.4925 16.25956,19.5272 4.18002,5.206 9.74905,9.0871 15.54752,12.2426 3.9028,3.4225 8.77919,5.5729 12.42185,9.315 5.02925,2.8317 10.75071,4.1658 15.70116,7.1801 7.81242,3.81 14.88372,9.3719 23.5887,11.0722 10.16008,2.5487 20.72762,2.7964 30.88738,5.3417 5.58421,1.3285 11.02378,-2.5198 16.56068,-0.1743 4.56081,1.9493 9.79654,1.5238 14.05065,-1.0025 6.50807,-3.2109 10.62879,-10.033 17.6356,-12.3069 5.19272,-1.4448 8.90516,3.3345 12.49632,6.2046 3.42418,3.2299 7.73757,5.9124 12.61616,5.6802 6.86205,0.1915 13.0303,-3.4195 19.62433,-4.7817 7.70092,-1.9174 15.11336,-5.0789 21.412,-9.9636 4.07998,-2.1133 8.54495,-3.462 12.53603,-5.8235 6.82253,-3.4142 13.02673,-7.9114 19.76524,-11.4546 3.83078,-1.106 6.05599,-4.787 9.68576,-6.4374 6.27474,-3.3138 11.49402,-8.1536 17.20684,-12.2698 5.27831,-2.0611 9.51206,-5.9775 14.00971,-9.3496 4.53197,-3.5814 8.97578,-7.3123 14.26088,-9.7372 5.34387,-3.4115 10.96873,-6.235 16.73313,-8.8522 z"
       id="path3020"
       inkscape:connector-curvature="0"
       sodipodi:nodetypes="cccccccccccccccccccccccccccccccccccccccccccccccccccccccccccccccccccccccccccccccccccccccccccccccccccccccccccccccccccccccccccccccccccccccccccccccccccccccccccc" />
    <path
       style="fill:#000000;stroke:none"
       d="m -538.11127,412.73842 c -0.079,0.01 -0.1518,0.037 -0.2187,0.062 -2.4359,0.9348 -1.3647,7.7269 2.5,15.9063 1.5954,3.3769 3.3435,8.8043 3.875,12.0624 1.592,9.7622 5.7382,25.0342 11.125,40.9376 3.478,10.2685 4.9329,15.9809 4.5937,18.125 -0.2724,1.7226 -0.0466,3.6096 0.5313,4.1874 0.578,0.5779 0.8061,1.7021 0.5,2.5 -0.6635,1.7292 -13.3007,6.7232 -17.9376,7.0938 -2.9578,0.2364 -7.7908,1.5333 -13.3437,3.5938 -1.1345,0.4211 -4.9361,0.6557 -8.4687,0.5 -6.1848,-0.2727 -6.5444,-0.1766 -9.6876,3.1562 -1.7952,1.9036 -3.2812,4.2774 -3.2812,5.25 0,2.0427 3.8901,4.0718 7.8125,4.0938 1.4867,0.01 3.332,0.4238 4.0937,0.9062 4.057,2.5694 -8.6541,4.1416 -15.9062,1.9688 -3.2707,-0.9801 -5.013,-0.7276 -14.0938,2.0624 -11.2528,3.4575 -17.6312,5.2102 -25.4062,7 -2.75,0.6332 -6.575,2.4735 -8.5,4.0938 -7.9903,6.7253 -10.6792,7.7551 -23.6562,8.8438 -8.3461,0.7 -13.3868,1.6235 -16,2.9374 -2.0985,1.0551 -5.6438,2.4493 -7.8438,3.125 -2.2,0.6758 -7.6,2.9766 -12,5.0938 -8.5195,4.0993 -18.822,6.4718 -23.5312,5.4375 -2.086,-0.4582 -4.0582,0.067 -7.25,1.9375 -2.4113,1.4131 -5.3189,2.5938 -6.4688,2.5938 -2.9858,0 -5.387,2.8074 -5.0312,5.875 0.1674,1.4433 0.6738,2.4 1.125,2.125 0.4511,-0.2751 1.2426,0.2874 1.7812,1.25 0.5576,0.9963 2.1502,1.7187 3.6875,1.7187 1.4852,0 6.2425,0.5299 10.5625,1.1875 7.1534,1.0889 7.9294,1.0467 8.8125,-0.5312 0.5333,-0.9529 3.5345,-2.99 6.6563,-4.5313 3.1216,-1.5413 7.0062,-3.4905 8.6562,-4.3437 4.5199,-2.3376 13.5687,-5.8252 17.625,-6.8126 1.9802,-0.4818 5.7096,-1.7905 8.3125,-2.9062 2.6028,-1.1157 5.3501,-2.0312 6.0937,-2.0312 0.7436,0 2.608,-0.5375 4.1563,-1.1876 1.5483,-0.65 3.6565,-1.2734 4.6563,-1.375 0.9996,-0.1017 4.8245,-1.1113 8.5,-2.25 8.9114,-2.7608 25.2566,-6.3451 30.0937,-6.5937 2.1414,-0.1101 4.5868,-0.7628 5.4375,-1.4687 1.1232,-0.9323 2.0349,-1.0115 3.3438,-0.25 1.2179,0.7084 1.3453,1.0727 0.4062,1.0937 -0.7643,0.017 -1.8893,0.6807 -2.5,1.5 -1.0121,1.3579 -8.8973,3.1511 -24.625,5.5625 -8.554,1.3116 -11.2607,2.089 -14.125,4.0938 -1.4599,1.0217 -3.2599,1.8975 -4,1.9374 -0.7401,0.04 -2.725,0.9463 -4.375,2 -1.65,1.0537 -3.675,2.1658 -4.5,2.5 -0.825,0.3344 -3.5504,1.6986 -6.0625,3 -2.5122,1.3015 -8.8122,3.9638 -14,5.9376 -8.8938,3.3835 -14.9412,6.7474 -19.375,10.75 -1.0662,0.9625 -2.2821,1.75 -2.7187,1.75 -0.4366,0 -3.7494,1.7999 -7.3438,4 -3.5944,2.2 -6.9829,4 -7.5312,4 -0.5484,0 -1.8145,1.3277 -2.8126,2.9687 -2.1226,3.4904 -1.7326,8.6401 0.75,9.9687 1.8165,0.9722 9.0938,-0.8557 9.0938,-2.2812 0,-0.4592 1.3988,-0.5285 3.0938,-0.1562 2.3348,0.5127 3.6075,0.1947 5.25,-1.3126 1.1924,-1.0942 3.6877,-2.2971 5.5312,-2.6874 1.8435,-0.3904 4.101,-1.476 5.0312,-2.4063 0.9303,-0.9302 3.48,-2.6 5.6563,-3.7187 2.1762,-1.1188 9.1125,-4.6856 15.4375,-7.9063 6.325,-3.2207 12.7891,-6.8819 14.3438,-8.1563 1.5546,-1.2743 3.4764,-2.3124 4.2812,-2.3124 1.9639,0 9.1142,-3.6551 13.2812,-6.7813 9.7386,-7.3062 21.8288,-10.6828 28.8126,-8.0625 5.2874,1.9839 9.1741,1.5004 16.5,-2.0312 7.4934,-3.6124 14.2665,-5.4771 17.1874,-4.75 1.1636,0.2896 4.6815,0.1772 7.8126,-0.25 7.3614,-1.0045 14.175,-0.1092 14.5624,1.9062 0.3752,1.9521 -2.0929,4.4619 -9.3124,9.4688 -3.1725,2.2 -7.3045,5.2973 -9.1876,6.9062 -1.883,1.6089 -5.5261,3.9208 -8.0937,5.125 -5.399,2.5323 -13.7642,9.6582 -14.6563,12.4688 -0.336,1.0589 -3.4052,3.5847 -6.8124,5.625 -6.3403,3.7965 -28.4113,19.793 -30.2188,21.9062 -0.5522,0.6455 -2.1272,1.5119 -3.5,1.9375 -7.0198,2.1761 -11.7604,5.3999 -19.4062,13.1563 -5.3955,5.4732 -7.6334,5.8297 -10.7188,1.6874 -0.7464,-1.0019 -4.75,-2.9339 -8.875,-4.2812 -4.125,-1.3473 -8.2403,-2.894 -9.1562,-3.4375 -1.0997,-0.6524 -3.1539,-0.6344 -6.0626,0.031 -2.4855,0.5688 -7.3981,0.7111 -11.25,0.3124 -9.2599,-0.9584 -23.9372,0.3162 -25.0937,2.1876 -0.2941,0.4756 -1.7088,0.875 -3.125,0.875 -1.4162,0 -4.1987,0.4126 -6.1875,0.9374 -1.9888,0.5251 -4.75,1.2251 -6.125,1.5313 -2.4473,0.5451 -7,6.3488 -7,8.9375 0,0.7101 -1.125,2.9738 -2.5,5 -3.8531,5.6778 -2.9007,11.7406 3,19.1562 5.9039,7.4197 6.3535,7.705 10.875,6.9376 2.2769,-0.3866 7.05,-0.8886 10.625,-1.125 8.6411,-0.5718 11.7148,-1.2251 16.6562,-3.5313 2.9753,-1.3886 6.3602,-1.9235 12,-1.9375 8.332,-0.02 15.0806,0.8467 15.8126,2.0312 0.7228,1.1698 -6.7816,15.25 -11.5313,21.625 -5.2443,7.039 -6.1443,7.8605 -11.6563,10.5626 -5.0054,2.4538 -7.4481,4.4585 -19.7812,16.2187 -5.1065,4.8694 -10.6116,9.6476 -12.2188,10.625 -3.087,1.8774 -8.0505,8.3213 -16.5937,21.5625 -7.9215,12.2778 -16.4711,23.313 -23.2813,30.0312 -3.3885,3.3426 -8.8756,9.9023 -12.1874,14.5626 -3.3121,4.6601 -6.749,9.0541 -7.625,9.7812 -0.876,0.727 -1.5938,1.6916 -1.5938,2.125 0,0.4334 -1.8,3.9614 -4,7.8438 -2.2,3.8823 -4,7.5241 -4,8.0937 0,0.5695 -1.1226,3.3964 -2.5312,6.2813 -1.4087,2.8848 -3.7371,8.625 -5.1563,12.75 -1.4193,4.125 -2.9016,7.95 -3.3125,8.5 -0.4109,0.5499 -2.0263,4.825 -3.5625,9.5 -1.5362,4.6749 -3.413,9.2331 -4.1875,10.1562 -0.8265,0.9853 -1.1361,2.5337 -0.75,3.75 0.9404,2.963 6.0463,2.8663 7.6562,-0.1562 0.6592,-1.2375 1.7454,-2.7001 2.4376,-3.25 1.3387,-1.0635 7.06,-10.8151 8.0624,-13.75 0.3288,-0.9626 1.2274,-1.75 2,-1.75 0.7727,0 1.8892,-1.0402 2.4688,-2.3126 0.5797,-1.2722 2.5853,-3.1419 4.4688,-4.1562 1.8835,-1.0144 3.4062,-2.1885 3.4062,-2.5938 0,-2.83 19.2893,-19.6674 26.3125,-22.9687 2.6802,-1.2598 5.6439,-3.7136 7.25,-6.0313 1.4918,-2.1526 3.0817,-3.6721 3.5625,-3.375 0.4807,0.2972 2.1114,-0.1592 3.625,-1 1.5137,-0.8408 4.6625,-2.0066 7,-2.5937 2.3375,-0.5871 4.25,-1.5057 4.25,-2.0625 0,-0.5569 1.5124,-1.6411 3.3438,-2.4062 1.8313,-0.7653 3.9139,-2.112 4.625,-2.9688 0.711,-0.8568 1.7373,-1.5312 2.2812,-1.5312 0.5438,0 3.0737,-1.7362 5.625,-3.8438 5.2882,-4.3684 7.7371,-5.5467 10.8125,-5.25 2.0423,0.1971 12.0031,-4.7214 15.4063,-7.5938 0.8651,-0.7302 3.7901,-1.5887 6.5,-1.9374 2.7098,-0.3488 6.2847,-1.4468 7.9374,-2.4376 1.6527,-0.9906 6.5824,-2.9744 10.9688,-4.4062 4.3865,-1.4319 9.1142,-3.6094 10.5,-4.8438 3.9466,-3.5147 10.2806,-8.2561 12.9688,-9.6874 1.3472,-0.7174 4.4435,-3.4844 6.875,-6.1563 2.4315,-2.6719 4.8241,-4.8437 5.3124,-4.8437 1.751,0 9.5,-6.2885 18.3438,-14.8438 16.042,-15.5186 29.8779,-26.4799 35.0625,-27.7812 3.2821,-0.8238 7.1318,2.0974 7.8125,5.9062 0.3148,1.7611 0.8344,4.7722 1.1562,6.6875 1.1377,6.7695 6.2005,9.6965 10.1563,5.875 1.3404,-1.295 3.4838,-3.3613 4.75,-4.5937 1.2663,-1.2326 3.3709,-4.3724 4.6875,-6.9688 1.3166,-2.5965 2.7326,-5.1789 3.1562,-5.75 1.5021,-2.0246 8.7188,-13.6167 8.7188,-14 0,-0.2141 1.2375,-1.6873 2.75,-3.2812 1.5125,-1.594 4.937,-5.4557 7.5938,-8.5626 3.7322,-4.3643 5.6647,-5.7799 8.5,-6.2812 5.8924,-1.0419 20.1633,-8.3773 24.1562,-12.4062 0.825,-0.8325 2.4,-1.6578 3.5,-1.8438 3.20935,-0.5426 12.5,-8.0192 12.5,-10.0625 0,-3.6555 2.46072,-4.2814 17.75,-4.5313 14.02307,-0.229 14.89602,-0.127 17.46875,2 1.73759,1.4366 5.30476,2.656 9.9375,3.4376 6.92779,1.1684 7.31136,1.1405 8.96875,-0.9063 0.95131,-1.1748 1.88162,-2.5488 2.0625,-3.0625 0.18088,-0.5136 5.89825,-1.0421 12.6875,-1.1562 l 12.34375,-0.1876 2.875,-3.0937 c 3.45051,-3.681 3.55395,-4.5307 0.875,-7.4063 -1.68967,-1.8136 -3.18857,-2.2232 -8.75,-2.2812 -9.88039,-0.1038 -16.26309,-0.9067 -18.625,-2.375 -1.15066,-0.7154 -3.30189,-1.5871 -4.8125,-1.9375 -1.51062,-0.3504 -4.69934,-1.9905 -7.0625,-3.6563 -2.36316,-1.6657 -6.07377,-3.6411 -8.25,-4.375 -3.90467,-1.3169 -5.72314,-3.3508 -15.25,-17.0624 -1.52255,-2.1915 -3.8097,-4.5162 -5.09375,-5.1563 -1.28405,-0.6402 -4.41801,-3.1616 -6.96875,-5.625 -2.55073,-2.4633 -5.87744,-4.7678 -7.40625,-5.125 -1.52881,-0.3573 -3.77881,-1.8446 -5,-3.3125 -1.22119,-1.4678 -4.1625,-4.479 -6.5,-6.6562 -4.78199,-4.454 -5.79961,-8.978 -2.25,-9.9063 3.03356,-0.7933 10.21192,1.2947 13,3.7813 1.375,1.2262 4.65136,2.9214 7.25,3.7812 4.42767,1.4649 4.87338,1.4407 7,-0.2812 1.97153,-1.5966 2.24155,-2.6585 2.0625,-8.0938 -0.18024,-5.4716 -0.59304,-6.6337 -3.25,-9.375 -1.67091,-1.7239 -3.0625,-3.4575 -3.0625,-3.8438 0,-1.2851 3.74596,-0.7138 8.0625,1.2188 2.34531,1.05 4.83637,1.6728 5.53125,1.4062 0.69488,-0.2667 1.77518,-2.6194 2.40625,-5.25 1.21743,-5.0748 0.50731,-6.8756 -5.9375,-15.2187 -1.12933,-1.462 -2.0625,-3.2921 -2.0625,-4.0625 0,-0.7704 -0.62999,-2.276 -1.4375,-3.3438 -0.82984,-1.097 -1.482,-4.1609 -1.5,-7.0312 l -0.0625,-5.0625 5.25,-1.2813 c 4.95515,-1.1859 13.24616,-2.5105 22.25,-3.5937 8.92367,-1.0735 10.46939,-1.6235 12.96875,-4.5937 3.20125,-3.8045 3.295,-6.7008 0.28125,-7.3126 -1.2375,-0.2511 -6.075,-0.7075 -10.75,-1.0312 -9.15869,-0.634 -27.3629,-4.0189 -30.28125,-5.625 -0.98487,-0.5419 -2.15908,-0.7567 -2.625,-0.4688 -0.46593,0.2881 -4.37628,0.078 -8.6875,-0.4687 -8.83042,-1.1196 -10.12125,-1.9998 -14.21875,-9.75 -3.06145,-5.7907 -8.89335,-13.5932 -14.625,-19.5937 -2.17013,-2.2719 -4.04802,-4.5751 -4.1875,-5.125 -0.83277,-3.2839 -3.8095,-10.5007 -5.5625,-13.5 -4.9459,-8.4626 -10.3727,-16 -11.5313,-16 -0.6917,0 -1.2812,-0.829 -1.2812,-1.8438 0,-1.0148 -0.9352,-2.7023 -2.0938,-3.75 -1.1585,-1.0477 -2.9092,-3.4813 -3.9062,-5.4062 -2.7064,-5.2253 -10.74,-12.7528 -13.1875,-12.4688 z m 33,193.9688 c 1.5472,0.1325 1.7281,2.9706 1.4375,10.2812 -0.2124,5.3432 -0.7369,10.0674 -1.1562,10.5 -0.4195,0.4326 -3.8715,0.2552 -7.6876,-0.375 -4.4864,-0.741 -8.1586,-0.8107 -10.4062,-0.2188 -1.9116,0.5042 -4.2875,0.7401 -5.25,0.5313 -2.3629,-0.5125 -2.2304,-3.2187 0.1562,-3.2187 1.0449,0 4.0825,-2.391 6.75,-5.2813 4.495,-4.8699 6.3986,-6.4354 13.125,-10.9063 1.347,-0.8951 2.328,-1.3728 3.0313,-1.3124 z m 19.96875,0.7812 c 1.80987,-0.1788 6.7472,2.1155 7.71875,3.6875 0.34234,0.5539 1.31319,1.0313 2.15625,1.0313 1.6562,0 4.25888,1.8254 13.09375,9.2812 3.87998,3.2743 6.21197,6.2059 7.34375,9.1875 l 1.65625,4.375 -6.5625,-0.031 c -3.98207,-0.023 -6.74435,0.3893 -6.96875,1.0626 -0.46167,1.3848 -2.88725,1.4702 -3.71875,0.125 -0.33992,-0.5501 -2.49234,-1 -4.8125,-1 -2.32016,0 -5.27136,-0.7519 -6.5625,-1.6563 -2.09453,-1.467 -2.29068,-2.2107 -1.8125,-6.8437 0.35817,-3.4705 -0.0996,-7.4197 -1.34375,-11.9063 -1.53187,-5.5244 -1.61945,-6.7893 -0.5,-7.2187 0.0908,-0.035 0.19184,-0.082 0.3125,-0.094 z"
       id="path3010"
       inkscape:connector-curvature="0" />
    <path
       style="fill:#000000;stroke:none"
       d="m 14.14775,853.94542 c -11.5037299,-5.8003 -13.55059985,-6.9588 -13.88924985,-7.8611 -0.18334,-0.4884 -1.08334,-0.8981 -2.00000005,-0.9103 -0.91667,-0.012 -2.79167,-0.9022 -4.16667,-1.9778 -1.375,-1.0755 -2.9655,-1.9655 -3.53444,-1.9777 -0.5689301,-0.012 -4.2903401,-2.2723 -8.2697901,-5.0223 -3.97945,-2.75 -7.49449,-5 -7.8112,-5 -0.31671,0 -1.7703,-0.8365 -3.2302,-1.859 -1.4599,-1.0224 -4.90437,-2.1546 -7.65437,-2.5158 -5.11248,-0.6717 -11.9196,-2.7114 -13.148,-3.9398 -0.37693,-0.377 -1.62283,-0.6881 -2.76867,-0.6915 -1.14583,0 -3.38037,-0.6826 -4.96564,-1.5094 -1.58527,-0.8267 -4.73527,-1.7666 -7,-2.0885 -2.26473,-0.322 -7.26769,-1.4094 -11.11769,-2.4165 -7.15931,-1.8726 -16.0412,-3.0858 -24.97604,-3.4114 -5.77791,-0.2106 -26.05005,2.1678 -29.02396,3.4051 -1.1,0.4576 -6.5,1.5934 -12,2.524 -5.5,0.9306 -11.35,2.0605 -13,2.511 -1.65,0.4505 -7.68424,1.1085 -13.40943,1.4622 -6.0939,0.3765 -11.61518,1.2667 -13.31779,2.1471 -1.5996,0.8272 -3.44036,1.3163 -4.09057,1.0868 -0.65022,-0.2294 -2.30721,2e-4 -3.68221,0.5102 -1.375,0.51 -4.89703,0.9276 -7.82672,0.9279 -2.9297,2e-4 -7.2047,0.6786 -9.5,1.5074 -6.78566,2.4502 -28.58412,2.0753 -36.61398,-0.6298 -6.55436,-2.208 -15.97805,-8.0318 -19.67435,-12.1586 -9.78057,-10.9197 -16.51072,-30.0897 -18.38289,-52.3614 -0.50857,-6.05 -1.2489,-12.125 -1.64517,-13.5 -0.39627,-1.375 -0.84341,-13.7255 -0.99362,-27.4455 -0.29772,-27.1917 -0.84703,-40.2076 -2.52917,-59.9291 -1.67893,-19.6837 0.66827,-35.7659 5.47981,-37.5458 1.25328,-0.4636 1.60884,-1.0093 0.93073,-1.4284 -0.69192,-0.4276 -0.8072,-1.6891 -0.31205,-3.4147 1.17911,-4.1091 6.85924,-15.0065 8.30251,-15.9285 0.6957,-0.4444 2.33534,-2.7724 3.64367,-5.1732 1.30832,-2.4009 5.6558,-7.5759 9.66107,-11.5 9.98802,-9.7857 11.38909,-10.876 13.12104,-10.2114 0.9359,0.3591 1.34097,0.1044 1.06978,-0.6727 -0.24006,-0.6879 0.9255,-2.8257 2.59012,-4.7507 4.30672,-4.9804 16.80729,-16.1017 19.17922,-17.063 1.1,-0.4459 5.07998,-1.9954 8.8444,-3.4434 3.76443,-1.448 9.61443,-4.3908 13,-6.5397 9.3223,-5.9169 12.7793,-7.6551 21.70111,-10.9111 4.49938,-1.6421 8.73816,-3.4483 9.41949,-4.0137 0.68133,-0.5655 4.29432,-2.1364 8.02887,-3.491 6.75695,-2.4508 12.59735,-5.9243 17.43666,-10.3701 1.39612,-1.2825 3.78289,-3.0671 5.30394,-3.9656 1.52104,-0.8985 2.76553,-2.2593 2.76553,-3.0241 0,-2.2088 5.79464,-8.9371 12.4118,-14.4115 3.34851,-2.7703 6.64683,-6.0663 7.3296,-7.3245 0.72806,-1.3416 1.42848,-7.7283 1.69379,-15.4447 0.24882,-7.2365 0.90795,-13.7061 1.46474,-14.377 0.55679,-0.6709 1.32266,-3.2225 1.70192,-5.6702 0.37926,-2.4477 1.91252,-7.1504 3.40723,-10.4504 2.67471,-5.9052 6.14152,-16.1159 7.46962,-22 0.37242,-1.65 1.28056,-3.675 2.01808,-4.5 2.06926,-2.3147 6.66685,-18.8496 6.95134,-25 0.36424,-7.8746 2.74399,-13 6.03604,-13 3.13707,0 7.51584,2.7014 7.51584,4.6368 0,1.554 10.40026,12.3632 11.89555,12.3632 0.51647,0 1.72141,-2.0486 2.67765,-4.5525 0.95624,-2.5039 2.66858,-5.2039 3.80521,-6 5.48236,-3.84 13.62159,0.3103 13.62159,6.9457 0,1.9189 0.49592,3.7953 1.10203,4.1699 0.60612,0.3746 1.7429,2.2149 2.52618,4.0895 1.16496,2.7882 2.80372,4.0633 9.00442,7.0065 7.47052,3.546 14.36737,8.7868 14.36737,10.9176 0,1.4398 7.39788,9.4233 8.73208,9.4233 0.5716201,0 2.3282401,0.6722 3.9036101,1.4939 1.57537,0.8216 3.84415,1.4966 5.04173,1.5 4.94157,0.014 7.47953,7.0838 5.38694,15.0061 -0.50846,1.925 -1.18023,5.075 -1.49282,7 -2.95908995,18.2227 -4.67143,23.3602 -8.89275,26.6807 -3.8793601,3.0515 -4.8988001,5.9506 -4.2752301,12.1579 0.3128,3.1138 1.0399001,11.7364 1.6157701,19.1614 0.57587,7.425 1.49783,14.6437 2.0488,16.0415 0.55969,1.4199 0.75191,6.0535 0.43559,10.5 -0.31139,4.3772 -0.75918,16.4681 -0.99508,26.8686 -0.25319,11.1631 -0.85492,19.3362 -1.46877,19.95 -0.57193,0.572 -1.03987,1.8126 -1.03987,2.757 0,0.9444 -0.9419101,3.8919 -2.0931301,6.55 -1.15122,2.6581 -3.43084,9.3329 -5.06582,14.8329 -1.63499,5.5 -4.23862,12.7 -5.78586,16 -2.6516,5.6554 -5.3907,11.7715 -8.6364,19.284 -0.78033,1.8061 -1.41879,4.0642 -1.41879,5.0178 0,0.9537 -1.10026,3.3531 -2.44501,5.3321 -6.0516,8.9057 -11.19321,21.8992 -11.38692,28.7761 -0.0373,1.3256 -0.45322,2.6756 -0.92418,3 -1.56456,1.078 -7.3761,24.6541 -7.68437,31.1738 -0.44499,9.4112 1.74278,14.9334 9.1114,22.9982 8.73847,9.5641 9.33523,11.2073 5.94775,16.3773 -1.91785,2.927 -11.22006,6.2593 -13.53611,4.849 -0.87041,-0.53 -4.03032,-1.0673 -7.02203,-1.194 -2.9917,-0.1268 -5.77311,-0.4366 -6.1809,-0.6887 -0.40779,-0.252 -1.02409,-9e-4 -1.36955,0.5581 -1.05746,1.711 -4.85699,1.1091 -7.87233,-1.2471 -8.92034,-6.9704 -10.35607,-8.7357 -12.55638,-15.4383 -1.97971,-6.0306 -2.14233,-7.9864 -1.56028,-18.7653 0.48639,-9.0073 0.24922,-14.277 -0.94319,-20.9572 -0.87614,-4.9083 -1.78067,-9.1119 -2.01008,-9.3413 -0.9585,-0.9585 -4.80875,1.1418 -8.80056,4.8007 -2.34699,2.1512 -4.79944,3.9234 -5.44987,3.9381 -0.65044,0.015 -1.50018,1.0273 -1.88831,2.2502 -0.38812,1.2228 -3.79345,6.8087 -7.56738,12.4129 -3.77394,5.6042 -6.8617,10.6062 -6.8617,11.1156 0,0.5094 2.1375,3.0068 4.75,5.5497 13.41511,13.0581 14.23738,14.3664 13.42153,21.3547 -0.30201,2.587 -1.28672,4.0293 -4.01793,5.8852 -1.98983,1.3521 -4.3896,2.4584 -5.33282,2.4584 -0.94322,0 -3.83079,1.125 -6.4168,2.5 -5.05767,2.6892 -8.39124,3.1124 -11.48297,1.4578 -1.21968,-0.6528 -2.56112,-0.6989 -3.58938,-0.1235 -0.99927,0.5592 -2.95472,0.5564 -4.99625,-0.01 -1.84491,-0.5094 -6.61261,-1.3397 -10.59488,-1.8452 -12.0918,-1.5347 -15.03438,-2.0102 -20.2405,-3.2709 -2.75,-0.666 -10.24464,-1.1595 -16.65475,-1.0967 -10.1899,0.1 -12.03177,0.3825 -14.65437,2.25 -1.64979,1.1747 -3.37617,2.1359 -3.83639,2.1359 -1.70398,0 -15.13334,7.0981 -16.69578,8.8246 -1.46302,1.6166 -1.47048,1.9991 -0.0778,3.9875 2.69705,3.8506 7.28418,5.4582 16.399,5.7473 4.68603,0.1486 13.21326,0.7835 18.9494,1.4109 10.1119,1.1059 10.52081,1.073 13.43493,-1.0815 1.67165,-1.2359 4.25499,-2.1482 5.82067,-2.0555 1.54828,0.092 3.37756,0.1146 4.06506,0.051 0.6875,-0.064 7.91919,-0.2526 16.07042,-0.42 8.15123,-0.1674 15.56322,-0.5895 16.47108,-0.9378 3.34969,-1.2854 12.89419,-1.5628 19.2085,-0.5582 3.575,0.5687 12.125,1.5257 19,2.1266 6.875,0.6009 13.03894,1.5359 13.69764,2.0778 0.76003,0.6252 1.8137,0.6405 2.88365,0.042 0.99004,-0.554 3.17881,-0.5965 5.30236,-0.1028 1.98899,0.4623 5.98496,0.8514 8.87992,0.8645 2.89496,0.013 6.04496,0.4588 7,0.9904 0.95504,0.5316 4.88643,2.1655 8.73643,3.6307 3.85,1.4653 7.675,3.2272 8.5,3.9152 0.825,0.6881 2.54413,1.5696 3.82028,1.959 2.61991,0.7994 10.92934,6.5971 15.57165,10.8648 1.69688,1.56 4.44038,3.4154 6.09665,4.1232 1.65628,0.7078 4.13642,2.2829 5.5114201,3.5002 1.375,1.2173 3.99274,3.4044 5.8172,4.8602 1.82446,1.4559 4.26982,4.342 5.43414,6.4136 1.16432,2.0716 2.47252,3.7666 2.90712,3.7666 0.4346,0 1.53634,1.4429 2.4483,3.2064 0.91197,1.7636 4.5142699,5.9261 8.0051099,9.25 5.84746,5.5679 6.39607,6.4567 6.97081,11.2936 0.75784,6.3777 0.34771,6.4738 -8.52676,1.9992 z"
       id="path3004"
       inkscape:connector-curvature="0" />
    <path
       style="fill:#000000;stroke:none"
       d="m 886.50913,851.94622 c 0.5748,-4.8368 1.1234,-5.7256 6.9708,-11.2935 3.4909,-3.324 7.0932,-7.4865 8.0051,-9.25 0.912,-1.7636 2.0137,-3.2065 2.4483,-3.2065 0.4346,0 1.7428,-1.6949 2.9072,-3.7666 1.1643,-2.0716 3.6096,-4.9577 5.4341,-6.4135 1.8245,-1.4558 4.4422,-3.643 5.8172,-4.8603 1.375,-1.2173 3.8551,-2.7924 5.5114,-3.5002 1.6563,-0.7077 4.3998,-2.5632 6.0967,-4.1231 4.6423,-4.2677 12.9517,-10.0655 15.5716,-10.8649 1.2762,-0.3893 2.9953,-1.2709 3.8203,-1.9589 0.825,-0.6881 4.65,-2.4499 8.5,-3.9152 3.85,-1.4653 7.7814,-3.0991 8.7364,-3.6307 0.9551,-0.5316 4.1051,-0.9773 7,-0.9904 2.895,-0.013 6.891,-0.4022 8.88,-0.8646 2.1235,-0.4936 4.3123,-0.4512 5.3023,0.1029 1.07,0.5987 2.1236,0.5835 2.8837,-0.042 0.6587,-0.5419 6.8226,-1.4725 13.69757,-2.0679 6.875,-0.5955 15.2,-1.5639 18.5,-2.152 5.8362,-1.0401 16.2883,-0.7418 19.6796,0.5615 0.9238,0.3551 8.3488,0.7825 16.5,0.9499 8.1512,0.1675 15.3829,0.3565 16.0704,0.4201 0.6875,0.064 2.5168,0.041 4.0651,-0.051 1.5656,-0.093 4.149,0.8195 5.8206,2.0554 2.9142,2.1546 3.3231,2.1875 13.435,1.0815 5.7361,-0.6273 14.2633,-1.2622 18.9494,-1.4108 9.1148,-0.2891 13.7019,-1.8968 16.399,-5.7474 1.3927,-1.9883 1.3852,-2.3708 -0.078,-3.9874 -1.5622,-1.7265 -14.9916,-8.8247 -16.6956,-8.8247 -0.4602,0 -2.1866,-0.9611 -3.8364,-2.1359 -2.6226,-1.8674 -4.4644,-2.1502 -14.6543,-2.25 -6.4102,-0.063 -13.9048,0.4308 -16.6548,1.0967 -5.2061,1.2607 -8.1487,1.7362 -20.2405,3.271 -3.9823,0.5054 -8.75,1.3358 -10.5949,1.8452 -2.0415,0.5637 -3.997,0.5665 -4.9962,0.01 -1.0283,-0.5755 -2.3697,-0.5294 -3.5894,0.1234 -3.0273,1.6202 -6.1192,1.2507 -11.5646,-1.382 -2.7579,-1.3334 -6.1394,-2.6738 -7.5144,-2.9787 -1.375,-0.3049 -3.7547,-1.5765 -5.2882,-2.8257 -2.2751,-1.8534 -2.8037,-3.1083 -2.8728,-6.8205 -0.092,-4.9739 3.1736,-12.6347 5.8195,-13.65 2.0323,-0.7799 12.3415,-10.4771 12.3415,-11.6089 0,-0.4763 -3.077,-5.4394 -6.8379,-11.029 -3.7608,-5.5896 -7.0358,-10.7629 -7.2777,-11.4961 -0.6155,-1.8657 -10.5921,9.8073 -11.488,13.4414 -0.392,1.5905 -1.3691,3.9054 -2.1712,5.1443 -0.8022,1.2389 -2.0731,5.4782 -2.8244,9.4207 -1.5446,8.1066 -4.24537,15.8268 -5.53667,15.8268 -0.4752,0 -0.8641,0.5625 -0.8641,1.25 -10e-5,1.5213 -6.3705,6.75 -8.2241,6.75 -0.732,0 -2.2532,0.646 -3.3806,1.4356 -1.4298,1.0015 -4.748,1.416 -10.9725,1.3706 -4.9075,-0.036 -9.6936,0.2598 -10.6356,0.657 -2.5783,1.0871 -11.6283,-2.291 -13.4059,-5.004 -3.3874,-5.1699 -2.7907,-6.8131 5.9478,-16.3773 7.3686,-8.0648 9.5564,-13.587 9.1114,-22.9982 -0.3083,-6.5197 -6.1198,-30.0958 -7.6844,-31.1737 -0.471,-0.3245 -0.8868,-1.6745 -0.9242,-3 -0.1937,-6.8769 -5.3353,-19.8704 -11.3869,-28.7761 -1.3447,-1.979 -2.445,-4.4161 -2.445,-5.4157 0,-2.6964 -2.6335,-7.3292 -8.9352,-15.7182 -3.0985,-4.125 -7.1183,-10.3335 -8.9328,-13.7967 -1.8144,-3.4631 -3.9337,-7.5131 -4.7093,-9 -0.7757,-1.4868 -1.4132,-4.2016 -1.4165,-6.0328 0,-1.8312 -1.0904,-6.1062 -2.4156,-9.5 -1.3252,-3.3938 -2.6734,-7.0819 -2.9961,-8.1958 -0.8664,-2.9911 -2.3897,-15.713 -3.1102,-25.9747 -0.3476,-4.95 -0.8094,-9.562 -1.0263,-10.2488 -0.2168,-0.6868 0.4841,-8.1118 1.5577,-16.5 1.9643,-15.3466 2.5272,-32.5111 1.3484,-41.1117 -0.5068,-3.697 -1.028,-4.6395 -2.5658,-4.6395 -3.5079,0 -5.7116,-1.978 -6.9815,-6.2664 -0.6895,-2.3285 -2.2365,-5.0193 -3.4378,-5.9796 -2.8631,-2.2887 -7.379,-10.0501 -7.379,-12.6821 0,-1.1396 -0.3999,-2.0719 -0.8887,-2.0719 -1.2722,0 -2.1691,-5.7173 -2.0584,-13.1216 0.2109,-14.1099 0.7218,-15.5643 5.7937,-16.4931 2.0093,-0.368 4.541,-1.2803 5.6259,-2.0272 1.0849,-0.747 2.9974,-1.3581 4.25,-1.3581 1.2526,0 2.2775,-0.3514 2.2775,-0.7808 0,-0.4294 1.2375,-1.3472 2.75,-2.0394 4.9243,-2.2538 7.25,-3.6413 7.25,-4.3253 0,-0.3692 2.0118,-3.1409 4.4707,-6.1595 5.2563,-6.4526 11.9493,-10.201 16.4498,-9.2125 3.6157,0.7941 4.6707,-0.6051 9.0351,-11.9825 4.0084,-10.4494 4.3274,-10.8968 7.247,-10.1641 1.9908,0.4997 5.5054,4.3956 10.0026,11.0878 0.4437,0.6602 1.4781,0.2199 2.789,-1.1871 1.146,-1.2298 2.8964,-2.2363 3.8898,-2.2363 0.9933,0 2.6633,-0.9486 3.711,-2.1079 8.2354,-9.1127 12.3594,-7.0625 15.4166,7.6639 0.8549,4.1181 1.9652,6.395 3.9204,8.0403 1.5003,1.2624 3.8522,4.4571 5.2265,7.0995 1.3743,2.6423 2.97087,5.7042 3.54797,6.8042 0.5771,1.1 1.7955,3.575 2.7076,5.5 0.912,1.925 3.2266,5.75 5.1435,8.5 6.2034,8.8994 10.7248,29.4031 9.7535,44.2307 l -0.6046,9.2307 3.8967,3.6004 c 2.1433,1.9802 3.7843,4.0139 3.6468,4.5193 -0.1375,0.5054 0.5651,0.9189 1.5614,0.9189 0.9963,0 2.7775,0.9 3.9582,2 1.1807,1.1 2.8629,2 3.7382,2 0.8754,0 2.8376,0.6444 4.3606,1.432 1.5231,0.7876 10.9338,4.1482 20.9128,7.468 9.9789,3.3198 18.948,6.4568 19.9312,6.971 4.15,2.1705 21.2099,9.129 22.3811,9.129 1.3528,0 7.7817,2.7987 14.4065,6.2716 3.9661,2.0792 14.8802,10.4787 20.7948,16.0038 1.6915,1.5801 4.6869,3.695 6.6566,4.6998 4.2575,2.1721 19.2973,15.152 23.5486,20.3234 1.65,2.0071 4.4766,5.5735 6.2814,7.9254 1.8048,2.3518 4.4325,5.7387 5.8393,7.5265 1.4068,1.7877 3.5847,6.0627 4.8398,9.5 1.2551,3.4372 3.6947,9.0144 5.4212,12.3938 1.7266,3.3793 3.5644,8.1043 4.084,10.5 1.1864,5.4694 4.6834,18.6306 6.8699,25.8557 0.9889,3.2678 1.6899,9.1527 1.7271,14.5 0.035,4.95 0.5759,9.9436 1.2032,11.0968 0.7169,1.318 0.7891,2.4482 0.1946,3.0428 -1.1461,1.146 -1.5017,13.2582 -1.0384,35.3604 0.389,18.5531 -0.52,44.3392 -2.0019,56.7916 -0.5428,4.5604 -0.7945,8.6104 -0.5595,9 0.9957,1.651 -2.7968,17.1294 -5.5178,22.5196 -3.3382,6.6131 -9.9488,14.2764 -13.1851,15.2851 -1.1868,0.3699 -3.9578,1.911 -6.1578,3.4247 -20.5736,14.1557 -25.9631,16.1343 -43.9492,16.1351 -9.1157,4e-4 -14.3091,-0.4537 -17.2241,-1.5063 -2.2953,-0.8288 -6.5703,-1.5072 -9.5,-1.5074 -2.9297,-3e-4 -6.4517,-0.4179 -7.8267,-0.9279 -1.375,-0.51 -3.032,-0.7396 -3.6822,-0.5102 -0.6502,0.2295 -2.491,-0.2596 -4.0906,-1.0868 -1.7026,-0.8804 -7.2239,-1.7706 -13.3178,-2.1471 -5.7252,-0.3537 -11.7594,-1.0117 -13.4094,-1.4622 -1.65,-0.4505 -7.5,-1.5804 -13,-2.511 -5.5,-0.9306 -10.9,-2.0664 -12,-2.524 -3.205,-1.3335 -23.4572,-3.6211 -29.9017,-3.3777 -5.3565,0.2023 -12.72247,1.1372 -16.59827,2.1066 -0.825,0.2063 -3.1875,0.642 -5.25,0.9682 -2.0625,0.3262 -3.75,1.032 -3.75,1.5684 0,0.5364 -0.5751,0.7546 -1.278,0.4849 -1.957,-0.751 -12.1141,1.0787 -15.3465,2.7645 -1.5815,0.8248 -3.813,1.5024 -4.9588,1.5058 -1.1459,0 -2.3918,0.3145 -2.7687,0.6915 -1.2284,1.2284 -8.0355,3.2681 -13.148,3.9398 -2.75,0.3612 -6.1945,1.4934 -7.6544,2.5158 -1.4599,1.0225 -2.9135,1.859 -3.2302,1.859 -0.3167,0 -3.8317,2.25 -7.8112,5 -3.9794,2.75 -7.7008,5.01 -8.2698,5.0223 -0.5689,0.012 -2.1594,0.9022 -3.5344,1.9777 -1.375,1.0756 -3.25,1.9656 -4.1667,1.9778 -0.9166,0.012 -1.8166,0.4219 -2,0.9103 -0.3386,0.9023 -2.3855,2.0608 -13.8892,7.8611 -8.8745,4.4747 -9.2846,4.3785 -8.5268,-1.9992 z"
       id="path3002"
       inkscape:connector-curvature="0" />
    <path
       style="fill:#000000;stroke:none"
       d="m 1438.3575,397.48842 c -0.4461,0 -0.953,0.074 -1.5313,0.2188 -2.6728,0.6707 -7.5246,5.9193 -10.6875,11.5312 -2.73,4.8436 -7.3086,11.4369 -8.1875,11.7812 -0.4678,0.1835 -0.8437,0.8689 -0.8437,1.5313 0,0.6624 -1.3411,2.7832 -2.9688,4.6875 -1.6276,1.9042 -2.978,4.0312 -3,4.7188 -0.022,0.6874 -0.4542,1.25 -0.9375,1.25 -0.4833,0 -1.392,1.2381 -2.0312,2.7812 -0.6391,1.543 -3.8523,6.6055 -7.125,11.25 -3.2727,4.6444 -7.1664,10.9437 -8.6563,13.9688 -1.4899,3.025 -3.0043,5.7249 -3.375,6 -1.5989,1.1859 -4.9062,7.6767 -4.9062,9.625 0,1.1701 -0.6835,2.6661 -1.5,3.3437 -0.8166,0.6777 -2.4904,3.2594 -3.7188,5.7187 -1.2283,2.4595 -2.9074,4.8141 -3.75,5.25 -0.8427,0.4362 -5.3562,0.8778 -10.0312,0.9688 -16.9885,0.3305 -38,5.1494 -38,8.7188 0,0.3248 0.9928,2.4439 2.2187,4.7187 1.2259,2.2749 2.2698,4.2522 2.3438,4.4063 0.1494,0.3109 4.8243,1.0854 10.9375,1.7812 2.2,0.2504 6.475,0.9313 9.5,1.5312 3.025,0.6002 6.436,1.2817 7.5937,1.5 1.9015,0.3589 2.039,0.8978 1.5938,5.6563 -0.2711,2.8971 -1.0947,6.1651 -1.8438,7.25 -0.7491,1.0849 -1.3437,2.7147 -1.3437,3.625 0,0.9102 -0.7286,2.2194 -1.5938,2.9375 -4.498,6.75 -9.325,10.6154 0.4688,9.6245 l 5.9062,-0.625 0.6563,3.5 c 0.3598,1.9198 -0.2848,3.6031 0.031,4.4688 0.2179,0.5971 0.1112,1 0.9687,1 1.7483,0 2.0687,1.5498 0.5313,2.5 -1.4727,0.9102 -0.09,5.7034 2.2187,7.7187 2.444,2.1336 6.2175,1.4583 9.7813,-1.75 2.5701,-2.3136 6.6801,-3.8346 13.25,-4.9375 3.2336,-0.5428 3.75,-0.3812 3.75,1.25 0,1.0404 -0.7309,3.4262 -1.6563,5.2812 -0.9254,1.8551 -1.5856,4.9889 -1.4687,6.9688 0.1824,3.0923 -0.3945,4.1545 -4.0938,7.5312 -2.3687,2.1621 -5.0429,4.9659 -5.9375,6.25 -0.8947,1.284 -3.3531,2.9122 -5.4687,3.625 -2.4414,0.8225 -5.0601,2.8549 -7.1563,5.5626 -1.8165,2.3463 -5.2029,5.6485 -7.5,7.3124 -4.8907,3.5427 -6.3702,5.1595 -11.8125,12.9688 -2.2276,3.1965 -4.7998,6.0512 -5.7187,6.3438 -5.1287,1.6328 -7.944,3.0652 -11.625,5.875 -2.2539,1.7204 -4.6907,2.9259 -5.4063,2.6874 -0.7155,-0.2385 -1.9021,0.4546 -2.6562,1.5313 -1.107,1.5803 -2.995,2.0858 -9.75,2.5625 -8.1189,0.573 -13.75,2.1575 -13.75,3.875 0,0.4617 -0.9,0.8438 -2,0.8438 -3.0094,0 -2.5871,4.3547 0.6562,6.9062 2.2696,1.7853 4.0368,2.0938 12.75,2.0938 l 10.0938,0 1.7812,3.0937 c 1.7061,2.9975 1.9082,3.0493 7,2.4063 7.2,-0.9093 11.1963,-2.2373 13.1875,-4.4376 1.4942,-1.651 2.9531,-1.8263 12.8438,-1.5 l 11.1562,0.375 6.0313,6.4376 c 6.5268,6.9715 11.4151,9.6555 18.5,10.0937 5.2474,0.3245 22.8483,2.8891 31.5,4.5937 5.5047,1.0846 7.8361,1.4631 11.25,1.8126 0.6859,0.07 2.5547,2.4505 5.2187,3.6874 2.8077,1.3036 9.7887,5.8136 11.2813,6.2188 4.2534,1.1007 7.75,6.245 7.75,11.4062 0,2.2389 1.0641,5.8965 2.5,8.5938 1.375,2.5829 2.5,5.188 2.5,5.8125 0,3.9927 7.3768,4.1335 8.375,0.1563 0.8481,-3.3792 5.9054,-5.9148 11.9375,-5.9688 8.9788,-0.08 15.6992,1.2298 17,3.3125 0.6992,1.1197 2.3102,1.9063 3.9375,1.9063 3.1227,0 4.5076,1.2729 10.4687,9.6562 2.3194,3.2619 6.7071,8.3145 9.7501,11.2188 3.0429,2.9041 5.5312,5.6681 5.5312,6.1562 0,2.099 18.4534,18.9688 20.75,18.9688 0.7172,0 3.1475,1.1678 5.4061,2.5937 6.7238,4.2445 27.1256,10.4323 37.3439,11.3437 4.95,0.4417 11.4749,1.507 14.5,2.3438 3.025,0.8367 7.1489,1.782 9.1561,2.125 2.0073,0.3429 4.2024,1.2832 4.875,2.0938 0.6727,0.8104 1.8516,1.5 2.625,1.5 1.2564,0 5.9194,2.2828 17.3126,8.5 2.0157,1.1 6.099,3.802 9.0937,6.0312 2.9946,2.2292 7.0307,5.0112 8.9687,6.1875 2.9526,1.7919 4.9609,3.8644 9.9688,10.1875 0.275,0.3472 1.6974,1.3852 3.1562,2.3125 2.6673,1.6953 13.6328,14.5522 15.5938,18.2813 0.9273,1.7632 9.6882,23.3686 12.4688,30.75 1.374,3.6477 2.82,3.4293 5.6874,-0.7813 1.9916,-2.9242 2.4865,-5.2839 3.125,-14.7187 0.8928,-13.1885 0.5104,-27.0116 -0.875,-32.4376 -0.5397,-2.1137 -1.4949,-6.2874 -2.1561,-9.3124 -1.3355,-6.1096 -5.5355,-15.5939 -9.4375,-21.3438 -1.4039,-2.0686 -2.5314,-4.1124 -2.5314,-4.5312 0,-0.4188 -4.3875,-5.1888 -9.75,-10.5938 -12.1784,-12.275 -13.6137,-13.5312 -14.8436,-13.5312 -0.5461,0 -1.6574,-0.7875 -2.5,-1.75 -0.8427,-0.9626 -3.761,-3.55 -6.4687,-5.75 -7.0527,-5.7303 -16.4376,-15.4358 -16.4376,-16.9688 0,-0.7188 -0.7035,-1.8808 -1.5624,-2.5938 -0.8592,-0.7128 -3.1597,-3.6799 -5.0938,-6.5937 -1.9341,-2.9138 -7.8681,-9.8599 -13.1875,-15.4375 -5.3194,-5.5776 -10.4017,-11.2566 -11.2814,-12.5938 -0.8794,-1.3372 -6.3919,-7.3262 -12.25,-13.3437 -5.858,-6.0174 -10.625,-11.4106 -10.625,-11.9687 0,-1.4317 5.7371,-1.2578 6.2189,0.1874 0.2656,0.7972 3.188,1.1673 8.8438,1.1563 7.7197,-0.015 9.0915,-0.3211 15.9374,-3.7187 11.5998,-5.7571 18.5,-10.895 18.5,-13.75 0,-1.9322 -0.4693,-2.3335 -2.375,-2.125 -2.1282,0.2328 -2.3129,-0.021 -1.6562,-2.5 1.4189,-5.3578 1.1327,-17.8326 -0.4688,-19.7813 -0.825,-1.0039 -4.8746,-3.3848 -8.9687,-5.2813 -6.4485,-2.9872 -8.454,-3.4332 -15,-3.4062 -4.1559,0.017 -9.8937,0.6756 -12.7813,1.4688 -2.8875,0.793 -5.25,1.0343 -5.25,0.5312 0,-0.5031 -1.9124,-0.6545 -4.25,-0.3438 -2.3375,0.3108 -6.0499,0.738 -8.25,0.9688 -9.9526,1.0437 -14.5,1.8935 -14.5,2.7188 0,0.4909 -1.2269,1.4492 -2.7187,2.125 -1.4918,0.6757 -3.8592,2.2765 -5.25,3.5624 -2.8827,2.6654 -2.3602,3.0735 -8.375,-6.25 -3.9039,-6.0514 -14.4677,-13.5001 -23.0313,-16.2187 -2.1213,-0.6735 -4.8213,-2.0637 -6,-3.125 -1.1789,-1.0613 -5.7251,-3.8464 -10.125,-6.1875 -4.3999,-2.3412 -10.6499,-6.018 -13.875,-8.1562 -3.2251,-2.1383 -6.2862,-3.875 -6.7812,-3.875 -0.4951,0 -2.1202,-1.3309 -3.625,-2.9376 -1.661,-1.7733 -8.907,-5.7457 -18.4688,-10.125 -8.6625,-3.9673 -15.75,-7.5688 -15.75,-8 0,-0.4309 -0.2627,-1.4374 -0.5625,-2.2187 -0.4529,-1.1803 0.4351,-1.2819 5.25,-0.625 3.1873,0.4348 6.7427,0.571 7.9063,0.2813 2.9208,-0.7271 9.6941,1.1376 17.1875,4.75 7.3258,3.5316 11.2125,4.0151 16.5,2.0312 6.9837,-2.6203 19.0738,0.7564 28.8125,8.0625 4.167,3.1263 11.3173,6.7813 13.2811,6.7813 0.8047,0 2.7266,1.0381 4.2814,2.3124 1.5546,1.2744 8.0187,4.9357 14.3436,8.1563 6.325,3.2207 13.2613,6.7875 15.4376,7.9063 2.1763,1.1187 4.726,2.7884 5.6562,3.7187 0.9303,0.9302 3.1878,2.0159 5.0312,2.4063 1.8435,0.3903 4.3388,1.5932 5.5313,2.6874 4.0055,0.1645 16.1902,4.217 17.4375,3.75 2.4826,-1.3286 2.8726,-6.4784 0.75,-9.9687 -0.998,-1.6411 -2.2641,-2.9687 -2.8125,-2.9687 -0.5484,0 -3.9369,-1.8 -7.5313,-4 -3.5943,-2.2001 -6.907,-4 -7.3437,-4 -0.4366,0 -1.6526,-0.7875 -2.7187,-1.75 -4.4339,-4.0026 -10.4812,-7.3665 -19.375,-10.75 -5.1878,-1.9737 -11.4879,-4.6674 -14,-5.9688 -2.5122,-1.3014 -5.2375,-2.6344 -6.0626,-2.9688 -0.825,-0.3342 -2.8499,-1.4462 -4.5,-2.5 -1.65,-1.0536 -3.6349,-1.96 -4.375,-2 -0.74,-0.04 -2.54,-0.9157 -4,-1.9374 -2.8642,-2.0047 -5.5709,-2.7823 -14.125,-4.0938 -15.7277,-2.4115 -23.6128,-4.2045 -24.625,-5.5625 -0.6106,-0.8192 -1.7356,-1.483 -2.4999,-1.5 -0.9391,-0.021 -0.8116,-0.3852 0.4063,-1.0937 1.3087,-0.7614 2.2205,-0.6821 3.3436,0.25 0.8507,0.7059 3.2962,1.3586 5.4376,1.4687 4.837,0.2486 21.1822,3.8329 30.0937,6.5937 3.6754,1.1387 7.5004,2.1484 8.5,2.25 0.9997,0.1017 3.108,0.725 4.6563,1.375 1.5482,0.6501 3.4126,1.1876 4.1562,1.1876 0.7436,0 3.491,0.8842 6.0938,2 2.6029,1.1157 6.3323,2.4242 8.3124,2.9062 4.0563,0.9872 13.1051,4.5062 17.625,6.8438 1.65,0.8532 5.5346,2.8024 8.6564,4.3437 7.6703,4.9697 8.9269,6.0509 15.4687,5.0625 4.32,-0.6575 9.0773,-1.1875 10.5626,-1.1875 1.4852,0 3.0601,-0.6203 3.5,-1.4063 0.4398,-0.786 1.2625,-1.3479 1.8124,-1.25 1.7119,0.3063 1.6841,-4.9721 -0.031,-6.6874 -0.8942,-0.8942 -2.5689,-1.625 -3.7188,-1.625 -1.1498,0 -4.0575,-1.1807 -6.4687,-2.5938 -3.1918,-1.871 -5.164,-2.3957 -7.25,-1.9375 -4.7092,1.0343 -15.0117,-1.3381 -23.5313,-5.4375 -4.4001,-2.1172 -9.7999,-4.418 -12,-5.0938 -2.2,-0.6757 -5.7453,-2.1012 -7.8437,-3.1562 -2.6133,-1.314 -7.6541,-2.2374 -16,-2.9375 -12.977,-1.0885 -15.666,-2.0871 -23.6563,-8.8125 -1.9249,-1.6203 -5.7501,-3.4606 -8.5001,-4.0938 -7.775,-1.7898 -14.1532,-3.5425 -25.4061,-7 -9.0809,-2.79 -10.8231,-3.0424 -14.0938,-2.0624 -4.7461,1.4223 -12.5361,1.4335 -15.1562,0.031 -1.8801,-1.0062 -1.9111,-1.1749 -0.3125,-2.3438 1.6172,-1.1824 1.6103,-1.3843 -0.062,-3.9374 -1.9645,-2.9983 -4.4236,-4.5832 -8.9688,-5.7188 -5.4088,-1.3513 -23.9353,-8.4595 -27.2812,-10.4688 -3.2294,-1.9393 -3.2573,-1.9951 -2.6875,-7.9374 0.3165,-3.3 1.1921,-7.8 1.9375,-10 2.5732,-7.5942 4.8641,-16.0209 5.0625,-18.5938 0.1094,-1.4197 0.6935,-3.5308 1.3125,-4.6875 0.619,-1.1567 1.1645,-3.5826 1.1875,-5.4063 0.023,-1.8236 1.1671,-6.4625 2.5625,-10.3124 1.3953,-3.8501 3.4163,-10.8101 4.4687,-15.4376 1.0525,-4.6274 2.63,-9.2228 3.5313,-10.2187 1.0505,-1.1608 1.8031,-4.2504 2.0937,-8.5937 0.4221,-6.3115 0.2656,-6.9904 -2.375,-10.0938 -1.7868,-2.1001 -2.7242,-2.8701 -4.0625,-2.875 z m -28.0313,200.1875 c 0.7081,-0.024 1.6806,0.4669 3,1.3437 6.7264,4.4708 8.6302,6.0364 13.125,10.9063 2.6677,2.8903 5.7052,5.2813 6.75,5.2813 2.3867,0 2.4884,2.7192 0.125,3.2187 -0.9625,0.2034 -3.4037,-0.034 -5.4375,-0.5313 -2.2171,-0.5423 -5.8097,-0.5496 -9,0 -4.7281,0.8148 -5.5689,0.704 -7.5,-1.125 -1.8061,-1.7105 -2.237,-3.4609 -2.5625,-10.2812 -0.2974,-6.2325 -0.058,-8.7609 1.5,-8.8125 z m -28.6562,8.375 c 0.04,-0.01 0.088,-0.012 0.125,0 0.6548,0.2052 0.8967,3.8031 0.5625,9.9063 l -0.5313,9.75 -4.4687,4.4687 -4.4688,4.4687 -9.9375,0.125 -9.9375,0.125 0.6563,-3.0624 c 0.9655,-4.3957 2.4821,-6.4411 6.0312,-8.125 1.7168,-0.8149 3.6305,-2.0973 4.25,-2.8438 0.6195,-0.7465 4.4894,-3.5488 8.625,-6.25 4.1355,-2.7011 7.7861,-5.6938 8.0938,-6.6562 0.3896,-1.2186 0.7214,-1.8336 1,-1.9063 z"
       id="path3000"
       inkscape:connector-curvature="0"
       sodipodi:nodetypes="ccccsscscscccscccsccscccssccccsssccssccsccccsccccssscsccsccccsscscssssccsccsscccccscccccccccscsssscsscsscssccsscccsccsccsccsccccsccssccsssscccccccsscscccccccsscscccccsccccccccssccsccsccccccscscccscccccscccssccccscccccccccccssccc" />
  </g>
</svg>
